<svg xmlns="http://www.w3.org/2000/svg" width="28.912" height="26.42" viewBox="0 0 28.912 26.42">
  <g id="heart_5_" data-name="heart (5)" transform="translate(0 0)">
    <path id="Path_1" data-name="Path 1" d="M21.186,0a7.72,7.72,0,0,0-6.73,3.938A7.72,7.72,0,0,0,7.727,0C3.459,0,0,3.958,0,8.225,0,18.943,14.456,26.42,14.456,26.42S28.912,18.943,28.912,8.225C28.912,3.958,25.453,0,21.186,0Zm0,0" transform="translate(0 0)" fill="#ff6243"/>
    <path id="Path_2" data-name="Path 2" d="M1.994,8.225A8.278,8.278,0,0,1,8.78.071,7.691,7.691,0,0,0,7.727,0C3.46,0,0,3.958,0,8.225,0,18.942,14.457,26.42,14.457,26.42s.374-.194,1-.56C12.188,23.939,1.994,17.225,1.994,8.225Zm0,0" transform="translate(0 0)" fill="#ff5023"/>
  </g>
</svg>
