<svg xmlns="http://www.w3.org/2000/svg" width="40.439" height="52.079" viewBox="0 0 40.439 52.079"><defs><style>.a,.b{fill:#435af4;}.b{fill-rule:evenodd;}</style></defs><g transform="translate(-113 437.262)"><path d="M1941.748,1307.7c0,1.335,1.971,2.1,3.052,2.1,4.322,0,11.314-9.853,11.314-17.291,0-4.323-2.987-8.391-7.564-8.391a7.149,7.149,0,0,0-7.31,7.437c0,5.785,4.895,6.166,4.895,8.519C1946.134,1304.08,1941.748,1306.369,1941.748,1307.7Z" transform="translate(-1821.581 -1721.316)"/><path class="a" d="M2065.048,1307.214c0,1.335,1.971,2.1,3.052,2.1,4.322,0,11.315-9.853,11.315-17.291,0-4.322-2.988-8.391-7.565-8.391a7.149,7.149,0,0,0-7.31,7.437c0,5.785,4.895,6.167,4.895,8.519,0,4.006-4.385,6.293-4.385,7.628Z" transform="translate(-1928.224 -1720.892)"/><path class="b" d="M1912.17,1536.194a20.22,20.22,0,0,0,20.22-20.22c0-.184,0-.367-.007-.544h-5.7c.007.177.012.361.012.544a14.519,14.519,0,1,1-29.039,0c0-.184,0-.367.007-.544h-5.7c-.007.177-.012.361-.012.544a20.22,20.22,0,0,0,20.22,20.22Z" transform="translate(-1778.95 -1921.377)"/></g></svg>