<svg xmlns="http://www.w3.org/2000/svg" width="194.15" height="52.079" viewBox="0 0 194.15 52.079"><defs><style>.a,.b{fill:#435af4;}.b{fill-rule:evenodd;}</style></defs><g transform="translate(-1790.95 -1255.689)"><g transform="translate(-101 28)"><path d="M1941.748,1307.7c0,1.335,1.971,2.1,3.052,2.1,4.322,0,11.314-9.853,11.314-17.291,0-4.323-2.987-8.391-7.564-8.391a7.149,7.149,0,0,0-7.31,7.437c0,5.785,4.895,6.166,4.895,8.519C1946.134,1304.08,1941.748,1306.369,1941.748,1307.7Z" transform="translate(-42.631 -56.364)"/><path class="a" d="M2065.048,1307.214c0,1.335,1.971,2.1,3.052,2.1,4.322,0,11.315-9.853,11.315-17.291,0-4.322-2.988-8.391-7.565-8.391a7.149,7.149,0,0,0-7.31,7.437c0,5.785,4.895,6.167,4.895,8.519,0,4.006-4.385,6.293-4.385,7.628Z" transform="translate(-149.274 -55.94)"/><g transform="translate(1945.685 1218.952)"><path d="M25.538-9.748A9.3,9.3,0,0,1,23.82-4.155,10.184,10.184,0,0,1,19-.606,21.189,21.189,0,0,1,11.545.562,24.357,24.357,0,0,1,2.291-1.146V-9.973a18.279,18.279,0,0,0,4.47,2.392,13.148,13.148,0,0,0,4.56.91,4.5,4.5,0,0,0,2.471-.573,1.874,1.874,0,0,0,.876-1.673,2.268,2.268,0,0,0-.438-1.381A4.3,4.3,0,0,0,12.9-11.41a24.683,24.683,0,0,0-3.291-1.415q-7.771-2.987-7.771-9.658a9.025,9.025,0,0,1,3.549-7.468q3.549-2.8,9.523-2.8,1.685,0,3.1.135t2.572.337q1.157.2,3.246.764v8.2a16.585,16.585,0,0,0-8-2.224,4.935,4.935,0,0,0-2.605.606,1.866,1.866,0,0,0-.988,1.662,2.084,2.084,0,0,0,.8,1.673,14.949,14.949,0,0,0,3.335,1.718q5.009,2.021,7.086,4.425A8.439,8.439,0,0,1,25.538-9.748ZM29.469,0V-32.209h9.7V0Zm40-.876A27.225,27.225,0,0,1,60.24.562,18.786,18.786,0,0,1,51.368-1.4,13.456,13.456,0,0,1,45.674-7a17.288,17.288,0,0,1-1.965-8.367,18.419,18.419,0,0,1,2.2-9.074,15.223,15.223,0,0,1,6.222-6.143,19.2,19.2,0,0,1,9.254-2.167,32.164,32.164,0,0,1,8.086,1.011v8.962a11.412,11.412,0,0,0-3.212-1.258,16.053,16.053,0,0,0-3.773-.449,8.446,8.446,0,0,0-6.233,2.269,8.293,8.293,0,0,0-2.28,6.154,8.148,8.148,0,0,0,2.28,6.1,8.335,8.335,0,0,0,6.1,2.235,15.821,15.821,0,0,0,7.12-1.8ZM74.48,0V-32.209H94.538v7.592H84.184v4.694h9.726v7.592H84.184v4.739h11.1V0Zm51.705-21.585a10.475,10.475,0,0,1-1.673,5.862,10.9,10.9,0,0,1-4.773,3.964,17.326,17.326,0,0,1-7.21,1.4h-2.965V0h-9.7V-32.209h13.207q6.806,0,9.961,2.583T126.186-21.585Zm-10.265.337a3.774,3.774,0,0,0-1.146-2.987,4.95,4.95,0,0,0-3.369-1.011h-1.842v7.951h2.179Q115.921-17.295,115.921-21.248ZM130.026,0V-32.209h9.7V0Z" transform="translate(0.198 49.994) rotate(0.883)"/></g><path class="b" d="M1912.17,1536.194a20.22,20.22,0,0,0,20.22-20.22c0-.184,0-.367-.007-.544h-5.7c.007.177.012.361.012.544a14.519,14.519,0,1,1-29.039,0c0-.184,0-.367.007-.544h-5.7c-.007.177-.012.361-.012.544a20.22,20.22,0,0,0,20.22,20.22Z" transform="translate(0 -256.425)"/></g></g></svg>